<svg xmlns="http://www.w3.org/2000/svg" width="720" height="440" viewBox="0 0 720 440" fill="none">
  <rect width="720" height="440" rx="12" fill="#F8FAFC"/>
  <rect x="0" y="0" width="180" height="440" fill="#EEF2FF"/>
  <text x="24" y="36" font-family="system-ui,sans-serif" font-size="11" fill="#64748B">Dashboard</text>
  <text x="24" y="58" font-family="system-ui,sans-serif" font-size="11" fill="#64748B">Clients</text>
  <text x="24" y="80" font-family="system-ui,sans-serif" font-size="11" fill="#48ABE2">Appointments</text>
  <rect x="200" y="24" width="496" height="48" rx="8" fill="#FFFFFF" stroke="#E2E8F0"/>
  <text x="216" y="54" font-family="system-ui,sans-serif" font-size="13" fill="#0F172A">Client Activity</text>
  <rect x="200" y="88" width="150" height="72" rx="8" fill="#FFFFFF" stroke="#E2E8F0"/>
  <text x="216" y="118" font-family="system-ui,sans-serif" font-size="11" fill="#64748B">Clients</text>
  <text x="216" y="142" font-family="system-ui,sans-serif" font-size="20" font-weight="700" fill="#0F172A">28</text>
  <rect x="366" y="88" width="150" height="72" rx="8" fill="#FFFFFF" stroke="#E2E8F0"/>
  <text x="382" y="118" font-family="system-ui,sans-serif" font-size="11" fill="#64748B">At Risk</text>
  <text x="382" y="142" font-family="system-ui,sans-serif" font-size="20" font-weight="700" fill="#DC2626">3</text>
  <rect x="532" y="88" width="164" height="72" rx="8" fill="#FFFFFF" stroke="#E2E8F0"/>
  <text x="548" y="118" font-family="system-ui,sans-serif" font-size="11" fill="#64748B">Active Tasks</text>
  <text x="548" y="142" font-family="system-ui,sans-serif" font-size="20" font-weight="700" fill="#0F172A">12</text>
  <path d="M200 280 L260 240 L340 260 L420 200 L500 220 L696 180" stroke="#48ABE2" stroke-width="3" fill="none"/>
  <circle cx="260" cy="240" r="4" fill="#48ABE2"/>
  <circle cx="340" cy="260" r="4" fill="#48ABE2"/>
  <circle cx="420" cy="200" r="4" fill="#48ABE2"/>
  <text x="200" y="320" font-family="system-ui,sans-serif" font-size="12" fill="#64748B">Illustrative practitioner dashboard  replace via CMS image URLs after capture.</text>
</svg>
